# xmcd CD database file
#
# Track frame offsets:
#	150
#	12855
#	24475
#	40772
#	52062
#	64490
#	70740
#	81097
#	181845
#
# Disc length: 3774 seconds
#
# Revision: 0
# Processed by: cddbd v1.5.1PL0 Copyright (c) Steve Scherf et al.
# Submitted via: CDex 1.51
#
DISCID=710ebc09
DTITLE=Carlos D'Alessio - India Song
DYEAR=1986
DGENRE=Jazz
TTITLE0=India Song
TTITLE1=Rumba
TTITLE2=Frangie
TTITLE3=Tango
TTITLE4=Wonderful Marie
TTITLE5=Charleston
TTITLE6=Louise
TTITLE7=Home Movies 1
TTITLE8=Home Movies 2
EXTD=YEAR: 1986
EXTT0=
EXTT1=
EXTT2=
EXTT3=
EXTT4=
EXTT5=
EXTT6=
EXTT7=
EXTT8=
PLAYORDER=
